<svg width="156" height="119" viewBox="0 0 156 119" fill="none" xmlns="http://www.w3.org/2000/svg">
<path d="M131.751 3.79396C134.447 1.33359 138.034 -0.0266037 141.756 0.000394349C145.478 0.0273924 149.043 1.43947 151.7 3.93867C154.357 6.43786 155.897 9.82869 155.995 13.3957C156.093 16.9626 154.742 20.4267 152.227 23.057L75.8717 114.602C74.5587 115.958 72.9741 117.046 71.2125 117.801C69.4509 118.556 67.5485 118.963 65.6192 118.998C63.6898 119.032 61.773 118.693 59.9835 118.001C58.194 117.309 56.5684 116.278 55.204 114.969L4.5681 66.4264C3.15798 65.1668 2.02695 63.6477 1.2425 61.9599C0.458048 60.2721 0.0362355 58.4502 0.00223364 56.6027C-0.0317683 54.7552 0.322738 52.9201 1.0446 51.2068C1.76645 49.4935 2.84088 47.9372 4.20378 46.6306C5.56667 45.3241 7.19011 44.2941 8.97726 43.602C10.7644 42.91 12.6786 42.5702 14.6058 42.6028C16.5329 42.6354 18.4334 43.0397 20.194 43.7918C21.9546 44.5438 23.5391 45.6281 24.8531 46.9799L64.9254 85.3776L131.387 4.19757C131.507 4.05633 131.635 3.92157 131.77 3.79396H131.751Z" fill="#F4F4F4"/>
</svg>
