<svg width="154" height="150" viewBox="0 0 154 150" fill="none" xmlns="http://www.w3.org/2000/svg">
<path d="M95.0775 74.9893L150.208 21.4085C152.622 19.0566 153.978 15.8668 153.978 12.5408C153.978 9.21478 152.622 6.02498 150.208 3.67312C147.793 1.32126 144.519 0 141.105 0C137.69 0 134.416 1.32126 132.002 3.67312L77 57.3789L21.9982 3.67312C19.5839 1.32126 16.3095 -2.47808e-08 12.8953 0C9.48104 2.47809e-08 6.20664 1.32126 3.79241 3.67312C1.37818 6.02498 0.0218802 9.21478 0.0218802 12.5408C0.0218802 15.8668 1.37818 19.0566 3.79241 21.4085L58.9225 74.9893L3.79241 128.57C2.59073 129.731 1.63692 131.113 0.986022 132.635C0.33512 134.157 0 135.789 0 137.438C0 139.087 0.33512 140.719 0.986022 142.241C1.63692 143.763 2.59073 145.144 3.79241 146.306C4.98429 147.476 6.4023 148.405 7.96465 149.039C9.527 149.674 11.2028 150 12.8953 150C14.5878 150 16.2636 149.674 17.8259 149.039C19.3883 148.405 20.8063 147.476 21.9982 146.306L77 92.5998L132.002 146.306C133.194 147.476 134.612 148.405 136.174 149.039C137.736 149.674 139.412 150 141.105 150C142.797 150 144.473 149.674 146.035 149.039C147.598 148.405 149.016 147.476 150.208 146.306C151.409 145.144 152.363 143.763 153.014 142.241C153.665 140.719 154 139.087 154 137.438C154 135.789 153.665 134.157 153.014 132.635C152.363 131.113 151.409 129.731 150.208 128.57L95.0775 74.9893Z" fill="#F4F4F4"/>
</svg>
