<svg width="156" height="134" viewBox="0 0 156 134" fill="none" xmlns="http://www.w3.org/2000/svg">
<path d="M4.9253 9.87575H32.0342C30.4541 8.6742 28.8575 7.45619 27.2774 6.25464C28.0675 8.65774 28.8575 11.0608 29.6476 13.4804C31.5569 19.2577 33.4497 25.035 35.3591 30.8123C37.6469 37.7583 39.9513 44.7207 42.2392 51.6831C44.2308 57.7238 46.2224 63.7644 48.1975 69.8051C49.1686 72.7349 50.0904 75.6812 51.0944 78.5945C51.1109 78.6439 51.1273 78.6768 51.1438 78.7262C51.9503 81.1787 54.6003 83.0221 57.2174 82.1827C59.6534 81.3926 61.5298 78.7427 60.6739 76.1091C59.8838 73.706 59.0938 71.3029 58.3037 68.8834C56.3944 63.1061 54.5015 57.3287 52.5922 51.5514C50.3044 44.589 48.0165 37.6266 45.7121 30.6642C43.7205 24.6235 41.7289 18.5829 39.7538 12.5422C38.7826 9.6124 37.8774 6.66613 36.8569 3.75279C36.8404 3.70341 36.824 3.67049 36.8075 3.62111C36.1162 1.5472 34.2892 0 32.0507 0H4.94175C2.3576 0 -0.111336 2.27142 0.0038806 4.93788C0.102638 7.62079 2.16009 9.87575 4.9253 9.87575V9.87575Z" fill="black"/>
<path d="M51.6353 74.9076C48.9688 79.6644 46.2859 84.4047 43.6195 89.1615C43.2409 89.8528 42.8459 90.5277 42.4673 91.219C40.6403 94.4615 42.9446 98.6422 46.7303 98.6422H122.115C125.588 98.6422 129.078 98.7081 132.567 98.6422H132.715C135.299 98.6422 137.768 96.3708 137.653 93.7044C137.538 91.0215 135.48 88.7665 132.715 88.7665H57.3303C53.8573 88.7665 50.3514 88.6677 46.8785 88.7665H46.7303C48.1458 91.2354 49.5778 93.7208 50.9934 96.1898C53.6598 91.4329 56.3427 86.6926 59.0092 81.9358C59.3877 81.2445 59.7828 80.5696 60.1613 79.8783C61.4287 77.6234 60.7703 74.3808 58.3837 73.1299C56.0464 71.9119 52.985 72.5045 51.6353 74.9076Z" fill="black"/>
<path d="M117.393 130.36C123.583 130.36 128.602 125.341 128.602 119.151C128.602 112.96 123.583 107.942 117.393 107.942C111.202 107.942 106.184 112.96 106.184 119.151C106.184 125.341 111.202 130.36 117.393 130.36Z" fill="black"/>
<path d="M102.892 119.151C102.958 125.323 106.826 130.656 112.57 132.812C118.002 134.853 124.684 133.076 128.388 128.599C132.322 123.825 133.112 117.027 129.836 111.662C126.61 106.362 120.421 103.777 114.381 104.963C107.714 106.263 102.958 112.468 102.892 119.151C102.875 120.879 104.422 122.525 106.184 122.443C107.978 122.36 109.459 120.994 109.476 119.151C109.476 118.887 109.492 118.608 109.508 118.344C109.508 118.229 109.525 118.114 109.541 117.999C109.591 117.34 109.525 118.212 109.508 118.196C109.393 118.13 109.854 116.715 109.904 116.583C109.953 116.451 110.052 115.892 110.167 115.859C110.2 115.842 109.871 116.468 110.052 116.139C110.118 116.007 110.183 115.875 110.233 115.744C110.48 115.25 110.776 114.805 111.072 114.344C111.385 113.867 110.628 114.855 111.154 114.246C111.319 114.065 111.484 113.867 111.665 113.686C111.846 113.505 112.027 113.324 112.208 113.159C112.29 113.094 112.372 113.011 112.455 112.945C112.57 112.847 113.047 112.616 112.619 112.797C112.257 112.945 112.521 112.88 112.636 112.797C112.751 112.715 112.866 112.633 112.998 112.55C113.179 112.435 113.36 112.32 113.558 112.221C113.804 112.073 114.068 111.958 114.331 111.826C114.413 111.777 114.759 111.612 114.331 111.81C113.837 112.04 114.496 111.76 114.545 111.744C114.99 111.579 115.467 111.448 115.928 111.349C116.076 111.316 116.224 111.299 116.372 111.267C116.734 111.184 116.059 111.299 116.059 111.299C116.356 111.299 116.668 111.234 116.965 111.234C117.508 111.217 118.035 111.234 118.578 111.283C119.187 111.332 117.952 111.168 118.709 111.316C119.006 111.365 119.286 111.448 119.582 111.513C119.829 111.579 120.076 111.662 120.322 111.744C120.388 111.76 120.717 111.876 120.734 111.892C120.75 111.941 120.125 111.579 120.454 111.777C120.915 112.057 121.425 112.271 121.886 112.567C122.001 112.649 122.117 112.731 122.248 112.814C122.363 112.896 122.61 112.962 122.265 112.814C121.936 112.682 122.149 112.715 122.265 112.83C122.38 112.929 122.479 113.011 122.594 113.11C123.005 113.472 123.351 113.867 123.713 114.262C124.207 114.805 123.483 113.884 123.795 114.361C123.927 114.575 124.075 114.772 124.207 114.986C124.339 115.2 124.47 115.431 124.586 115.645L124.734 115.941C125.046 116.534 124.799 115.892 124.717 115.859C124.915 115.925 125.129 117.11 125.195 117.324C125.244 117.538 125.293 117.768 125.343 117.982C125.474 118.608 125.326 117.785 125.326 117.768C125.408 117.85 125.376 118.229 125.376 118.328C125.408 118.822 125.408 119.332 125.376 119.826C125.359 119.974 125.343 120.122 125.343 120.286C125.326 120.616 125.145 120.566 125.376 120.089C125.26 120.336 125.26 120.698 125.195 120.961C125.079 121.422 124.898 121.867 124.767 122.327C124.635 122.739 125.063 121.768 124.849 122.146C124.799 122.229 124.75 122.344 124.717 122.443C124.586 122.706 124.454 122.953 124.306 123.2C124.174 123.414 124.042 123.628 123.894 123.842C123.45 124.517 124.207 123.512 123.828 123.957C123.466 124.368 123.121 124.763 122.709 125.126C122.643 125.191 122.248 125.619 122.133 125.619C122.133 125.619 122.808 125.158 122.281 125.488C122.182 125.553 122.1 125.603 122.018 125.669C121.557 125.965 121.08 126.212 120.602 126.459C120.092 126.722 121.195 126.261 120.487 126.508C120.24 126.59 120.01 126.673 119.763 126.755C119.516 126.821 119.269 126.887 119.006 126.953C118.89 126.969 118.792 127.002 118.676 127.018C117.952 127.183 119.203 126.985 118.775 127.018C118.232 127.068 117.705 127.101 117.162 127.084C116.899 127.084 116.636 127.051 116.356 127.035C116.257 127.035 115.862 126.985 116.339 127.035C116.882 127.084 116.224 127.002 116.109 126.985C115.533 126.87 114.973 126.689 114.413 126.492C114.315 126.459 113.986 126.294 114.397 126.492C114.874 126.722 114.298 126.442 114.199 126.393C113.936 126.261 113.689 126.13 113.442 125.981C113.195 125.833 112.965 125.669 112.718 125.504C112.323 125.257 112.767 125.636 112.866 125.636C112.8 125.636 112.586 125.405 112.537 125.356C112.109 124.977 111.698 124.582 111.319 124.138C111.319 124.138 111.039 123.858 111.039 123.809C111.039 123.875 111.434 124.368 111.171 123.957C111.006 123.71 110.842 123.48 110.694 123.233C110.529 122.953 110.381 122.657 110.233 122.377C109.887 121.702 110.397 122.903 110.134 122.163C109.936 121.603 109.772 121.044 109.657 120.451C109.64 120.352 109.64 120.204 109.591 120.122C109.838 120.665 109.64 120.583 109.607 120.204C109.574 119.858 109.558 119.513 109.558 119.167C109.541 117.439 108.06 115.793 106.266 115.875C104.422 115.925 102.875 117.307 102.892 119.151V119.151Z" fill="black"/>
<path d="M60.6562 130.36C66.8468 130.36 71.8652 125.341 71.8652 119.151C71.8652 112.96 66.8468 107.942 60.6562 107.942C54.4657 107.942 49.4473 112.96 49.4473 119.151C49.4473 125.341 54.4657 130.36 60.6562 130.36Z" fill="black"/>
<path d="M46.1553 119.151C46.2211 125.323 50.0891 130.656 55.8335 132.812C61.2652 134.853 67.9478 133.076 71.6512 128.599C75.585 123.825 76.3751 117.028 73.0996 111.662C69.8736 106.362 63.6848 103.778 57.6441 104.963C50.9615 106.263 46.2211 112.468 46.1553 119.151C46.1388 120.879 47.686 122.525 49.4472 122.443C51.2413 122.361 52.7227 120.994 52.7391 119.151C52.7391 118.888 52.7556 118.608 52.7721 118.344C52.7721 118.229 52.7885 118.114 52.805 117.999C52.8544 117.34 52.7885 118.213 52.7721 118.196C52.6568 118.13 53.1177 116.715 53.1671 116.583C53.2165 116.452 53.3152 115.892 53.4304 115.859C53.4634 115.843 53.1342 116.468 53.3152 116.139C53.3811 116.007 53.4469 115.875 53.4963 115.744C53.7432 115.25 54.0394 114.806 54.3357 114.345C54.6484 113.867 53.8913 114.855 54.418 114.246C54.5826 114.065 54.7472 113.867 54.9283 113.686C55.1093 113.505 55.2904 113.324 55.4714 113.16C55.5537 113.094 55.636 113.012 55.7183 112.946C55.8335 112.847 56.3109 112.616 55.8829 112.798C55.5208 112.946 55.7842 112.88 55.8994 112.798C56.0146 112.715 56.1298 112.633 56.2615 112.551C56.4425 112.435 56.6236 112.32 56.8211 112.221C57.068 112.073 57.3314 111.958 57.5947 111.826C57.677 111.777 58.0227 111.612 57.5947 111.81C57.1009 112.04 57.7593 111.761 57.8087 111.744C58.2531 111.58 58.7304 111.448 59.1913 111.349C59.3394 111.316 59.4876 111.3 59.6357 111.267C59.9978 111.185 59.323 111.3 59.323 111.3C59.6192 111.3 59.932 111.234 60.2282 111.234C60.7714 111.217 61.2981 111.234 61.8413 111.283C62.4503 111.333 61.2158 111.168 61.973 111.316C62.2692 111.366 62.5491 111.448 62.8453 111.514C63.0922 111.58 63.3391 111.662 63.586 111.744C63.6518 111.761 63.981 111.876 63.9975 111.892C64.014 111.942 63.3885 111.58 63.7177 111.777C64.1785 112.057 64.6888 112.271 65.1497 112.567C65.2649 112.649 65.3801 112.732 65.5118 112.814C65.627 112.896 65.8739 112.962 65.5282 112.814C65.199 112.682 65.413 112.715 65.5282 112.83C65.6435 112.929 65.7422 113.012 65.8574 113.11C66.2689 113.472 66.6146 113.867 66.9767 114.262C67.4705 114.806 66.7462 113.884 67.059 114.361C67.1907 114.575 67.3388 114.773 67.4705 114.987C67.6021 115.201 67.7338 115.431 67.849 115.645L67.9972 115.941C68.3099 116.534 68.063 115.892 67.9807 115.859C68.1782 115.925 68.3922 117.11 68.458 117.324C68.5074 117.538 68.5568 117.768 68.6062 117.982C68.7379 118.608 68.5897 117.785 68.5897 117.768C68.672 117.851 68.6391 118.229 68.6391 118.328C68.672 118.822 68.672 119.332 68.6391 119.826C68.6226 119.974 68.6062 120.122 68.6062 120.287C68.5897 120.616 68.4087 120.566 68.6391 120.089C68.5239 120.336 68.5239 120.698 68.458 120.962C68.3428 121.422 68.1618 121.867 68.0301 122.328C67.8984 122.739 68.3264 121.768 68.1124 122.147C68.063 122.229 68.0136 122.344 67.9807 122.443C67.849 122.706 67.7174 122.953 67.5692 123.2C67.4375 123.414 67.3059 123.628 67.1577 123.842C66.7133 124.517 67.4705 123.513 67.0919 123.957C66.7298 124.369 66.3841 124.764 65.9726 125.126C65.9068 125.192 65.5118 125.62 65.3966 125.62C65.3966 125.62 66.0714 125.159 65.5447 125.488C65.4459 125.554 65.3636 125.603 65.2813 125.669C64.8205 125.965 64.3431 126.212 63.8658 126.459C63.3556 126.722 64.4584 126.261 63.7506 126.508C63.5037 126.591 63.2733 126.673 63.0264 126.755C62.7795 126.821 62.5326 126.887 62.2692 126.953C62.154 126.969 62.0553 127.002 61.94 127.019C61.2158 127.183 62.4668 126.986 62.0388 127.019C61.4956 127.068 60.9689 127.101 60.4258 127.084C60.1624 127.084 59.8991 127.052 59.6192 127.035C59.5205 127.035 59.1255 126.986 59.6028 127.035C60.1459 127.084 59.4876 127.002 59.3723 126.986C58.7963 126.87 58.2366 126.689 57.677 126.492C57.5783 126.459 57.2491 126.294 57.6606 126.492C58.1379 126.722 57.5618 126.443 57.463 126.393C57.1997 126.261 56.9528 126.13 56.7059 125.982C56.459 125.834 56.2286 125.669 55.9817 125.504C55.5866 125.257 56.0311 125.636 56.1298 125.636C56.064 125.636 55.85 125.406 55.8006 125.356C55.3727 124.978 54.9612 124.583 54.5826 124.138C54.5826 124.138 54.3028 123.858 54.3028 123.809C54.3028 123.875 54.6978 124.369 54.4345 123.957C54.2699 123.71 54.1053 123.48 53.9571 123.233C53.7926 122.953 53.6444 122.657 53.4963 122.377C53.1506 121.702 53.6609 122.904 53.3975 122.163C53.2 121.603 53.0354 121.044 52.9202 120.451C52.9037 120.352 52.9037 120.204 52.8544 120.122C53.1012 120.665 52.9037 120.583 52.8708 120.204C52.8379 119.859 52.8214 119.513 52.8214 119.167C52.805 117.439 51.3236 115.793 49.5295 115.875C47.6696 115.925 46.1224 117.307 46.1553 119.151V119.151ZM152.665 25.8416L132.683 77.3601H55.8994L38.9131 25.8416H152.665Z" fill="black"/>
<path d="M149.488 24.9358C147.233 30.746 144.995 36.5562 142.74 42.3665C139.151 51.6332 135.563 60.8835 131.992 70.1502C131.169 72.2735 130.346 74.4133 129.523 76.5366C130.576 75.73 131.646 74.9235 132.699 74.117H65.3631C62.2687 74.117 59.1414 73.9853 56.0305 74.117H55.8989C56.9523 74.9235 58.0221 75.73 59.0756 76.5366C57.1498 70.6934 55.2405 64.8667 53.3147 59.0236C50.2697 49.7897 47.2247 40.5559 44.1961 31.3056C43.4883 29.1823 42.797 27.059 42.0893 24.9193C41.0359 26.3019 39.966 27.701 38.9126 29.0836H148.056C149.537 29.0836 151.019 29.1165 152.484 29.0836H152.681C154.409 29.0836 156.055 27.5693 155.973 25.7917C155.891 24.014 154.525 22.4997 152.681 22.4997H43.5377C42.0563 22.4997 40.575 22.4668 39.1101 22.4997H38.9126C36.8551 22.4997 35.061 24.623 35.7359 26.664C37.6616 32.5072 39.571 38.3339 41.4967 44.177C44.5417 53.4108 47.5868 62.6447 50.6153 71.8949C51.3231 74.0182 52.0144 76.1415 52.7222 78.2813C53.183 79.6639 54.401 80.7008 55.8989 80.7008H123.235C126.329 80.7008 129.457 80.816 132.568 80.7008H132.699C134.263 80.7008 135.349 79.6474 135.876 78.2813C138.131 72.471 140.369 66.6608 142.624 60.8506C146.213 51.5838 149.801 42.3335 153.373 33.0668C154.195 30.9435 155.018 28.8038 155.841 26.6805C156.467 25.0674 155.15 22.9935 153.537 22.6314C151.644 22.2035 150.146 23.2075 149.488 24.9358V24.9358Z" fill="black"/>
</svg>
