<svg width="85" height="149" viewBox="0 0 85 149" fill="none" xmlns="http://www.w3.org/2000/svg">
<path fill-rule="evenodd" clip-rule="evenodd" d="M0.13249 12.7744C0.064575 10.3103 0.684071 7.88029 1.91197 5.79453C3.13988 3.70876 4.92053 2.0625 7.02685 1.06404C9.13316 0.0655826 11.4697 -0.239727 13.7384 0.188531C16.0071 0.616789 18.1052 1.75851 19.7651 3.46791L81.3415 65.3868C82.4964 66.5472 83.4169 67.9496 84.0462 69.5054C84.6754 71.0612 85 72.7375 85 74.4328C85 76.128 84.6754 77.8059 84.0462 79.3617C83.4169 80.9175 82.4964 82.3183 81.3415 83.4787L19.7651 145.398C18.6652 146.566 17.3578 147.486 15.92 148.104C14.4822 148.723 12.9432 149.027 11.3939 148.998C9.84459 148.969 8.31642 148.608 6.89967 147.936C5.48291 147.265 4.2063 146.295 3.14525 145.087C2.08419 143.879 1.26022 142.455 0.722002 140.9C0.183785 139.346 -0.0577616 137.692 0.0116363 136.035C0.0810343 134.379 0.459971 132.753 1.12605 131.256C1.79213 129.759 2.73185 128.421 3.8897 127.319L56.479 74.4328L3.8897 21.5477C2.74762 20.428 1.82675 19.0752 1.18144 17.5685C0.536126 16.0617 0.179459 14.4311 0.13249 12.7744V12.7744Z" fill="#828282"/>
</svg>
