<svg width="156" height="141" viewBox="0 0 156 141" fill="none" xmlns="http://www.w3.org/2000/svg">
<path d="M78.8106 128.848L20.7861 73.2703C18.1122 70.7091 15.4828 68.1194 12.7643 65.5866L12.6455 65.4728V75.5327L70.6699 19.9544C73.3439 17.3932 76.0475 14.8605 78.6917 12.2708L78.8106 12.157C80.1624 10.8621 80.9794 8.95547 80.9794 7.11993C80.9794 5.36977 80.1772 3.29235 78.8106 2.08289C77.3993 0.844972 75.5424 -0.0799088 73.5518 0.00546479C71.5761 0.0908384 69.7192 0.731141 68.2931 2.08289L10.2687 57.6611C7.59472 60.2223 4.89108 62.7551 2.24685 65.3447L2.12801 65.4586C-0.709336 68.1763 -0.709336 72.8007 2.12801 75.5184C4.34143 77.6528 6.55486 79.7587 8.75343 81.8788L60.1673 131.125C62.8412 133.686 65.4855 136.276 68.1891 138.809L68.3079 138.923C69.6598 140.217 71.6504 141 73.5667 141C75.3939 141 77.5627 140.232 78.8254 138.923C80.1178 137.571 81.0834 135.792 80.9943 133.886C80.8903 131.993 80.2367 130.214 78.8106 128.848Z" fill="black"/>
<path d="M22.1312 78.9911H143.724C145.363 78.9911 147.016 79.0111 148.655 78.9911H148.869C150.693 78.9911 152.617 77.8721 153.914 76.0737C155.154 74.3353 156.08 71.4978 155.995 69C155.909 66.4223 155.31 63.7447 153.914 61.9263C152.517 60.1279 150.807 59.0089 148.869 59.0089H27.2759C25.637 59.0089 23.9839 58.9889 22.3449 59.0089H22.1312C20.307 59.0089 18.3831 60.1279 17.0862 61.9263C15.8463 63.6647 14.92 66.5022 15.0055 69C15.091 71.5777 15.6895 74.2553 17.0862 76.0737C18.4971 77.8521 20.2072 78.9911 22.1312 78.9911Z" fill="black"/>
</svg>
