<svg width="150" height="150" viewBox="0 0 150 150" fill="none" xmlns="http://www.w3.org/2000/svg">
<mask id="path-1-inside-1" fill="white">
<path d="M87.866 62.1343C81.0403 55.3115 71.7845 51.4788 62.1336 51.4788C52.4827 51.4788 43.2268 55.3115 36.4012 62.1343L10.6604 87.8667C3.83467 94.6925 0 103.95 0 113.603C0 123.256 3.83467 132.514 10.6604 139.34C17.4862 146.166 26.7439 150 36.397 150C46.0501 150 55.3078 146.166 62.1336 139.34L74.9998 126.474"/>
</mask>
<path d="M80.7964 69.2069C84.7024 73.1113 91.0341 73.11 94.9385 69.2039C98.8429 65.2979 98.8416 58.9662 94.9356 55.0618L80.7964 69.2069ZM36.4012 62.1343L29.3316 55.0618L29.3312 55.0621L36.4012 62.1343ZM10.6604 87.8667L3.59051 80.7945L3.58937 80.7957L10.6604 87.8667ZM0 113.603H-10H0ZM62.1336 139.34L69.2046 146.411L69.2046 146.411L62.1336 139.34ZM82.0708 133.545C85.9761 129.639 85.9761 123.308 82.0708 119.403C78.1656 115.497 71.8339 115.497 67.9287 119.403L82.0708 133.545ZM94.9356 55.0618C86.2347 46.3645 74.4359 41.4788 62.1336 41.4788V61.4788C69.133 61.4788 75.846 64.2585 80.7964 69.2069L94.9356 55.0618ZM62.1336 41.4788C49.8312 41.4788 38.0325 46.3645 29.3316 55.0618L43.4708 69.2069C48.4212 64.2585 55.1341 61.4788 62.1336 61.4788V41.4788ZM29.3312 55.0621L3.59051 80.7945L17.7304 94.9389L43.4711 69.2066L29.3312 55.0621ZM3.58937 80.7957C-5.11176 89.4968 -10 101.298 -10 113.603L10 113.603C10 106.602 12.7811 99.8882 17.7315 94.9378L3.58937 80.7957ZM-10 113.603C-10 125.909 -5.11176 137.71 3.58937 146.411L17.7315 132.269C12.7811 127.318 10 120.604 10 113.603H-10ZM3.58937 146.411C12.2905 155.112 24.0918 160 36.397 160V140C29.3961 140 22.6819 137.219 17.7315 132.269L3.58937 146.411ZM36.397 160C48.7023 160 60.5035 155.112 69.2046 146.411L55.0625 132.269C50.1121 137.219 43.3979 140 36.397 140V160ZM69.2046 146.411L82.0708 133.545L67.9287 119.403L55.0625 132.269L69.2046 146.411Z" fill="black" mask="url(#path-1-inside-1)"/>
<mask id="path-3-inside-2" fill="white">
<path d="M62.1338 87.866C68.9594 94.6888 78.2153 98.5216 87.8662 98.5216C97.5171 98.5216 106.773 94.6888 113.599 87.866L139.339 62.1336C146.165 55.3078 150 46.0501 150 36.397C150 26.7439 146.165 17.4862 139.339 10.6604C132.514 3.83467 123.256 0 113.603 0C103.95 0 94.6919 3.83467 87.8662 10.6604L75 23.5266"/>
</mask>
<path d="M69.2034 80.7934C65.2973 76.889 58.9657 76.8903 55.0613 80.7964C51.1568 84.7024 51.1581 91.0341 55.0642 94.9385L69.2034 80.7934ZM113.599 87.866L120.668 94.9385L120.669 94.9382L113.599 87.866ZM139.339 62.1336L146.409 69.2058L146.41 69.2046L139.339 62.1336ZM150 36.397L160 36.397L150 36.397ZM113.603 0V-10V0ZM87.8662 10.6604L80.7951 3.58937L80.7951 3.58937L87.8662 10.6604ZM67.9289 16.4556C64.0237 20.3608 64.0237 26.6925 67.9289 30.5977C71.8342 34.5029 78.1658 34.5029 82.0711 30.5977L67.9289 16.4556ZM55.0642 94.9385C63.7651 103.636 75.5638 108.522 87.8662 108.522V88.5216C80.8667 88.5216 74.1538 85.7418 69.2034 80.7934L55.0642 94.9385ZM87.8662 108.522C100.169 108.522 111.967 103.636 120.668 94.9385L106.529 80.7934C101.579 85.7418 94.8656 88.5216 87.8662 88.5216V108.522ZM120.669 94.9382L146.409 69.2058L132.269 55.0614L106.529 80.7938L120.669 94.9382ZM146.41 69.2046C155.112 60.5035 160 48.7023 160 36.397L140 36.397C140 43.3979 137.219 50.1121 132.268 55.0625L146.41 69.2046ZM160 36.397C160 24.0918 155.112 12.2905 146.41 3.58937L132.268 17.7315C137.219 22.6819 140 29.3961 140 36.397L160 36.397ZM146.41 3.58937C137.709 -5.11176 125.908 -10 113.603 -10V10C120.604 10 127.318 12.7811 132.268 17.7315L146.41 3.58937ZM113.603 -10C101.298 -10 89.4962 -5.11176 80.7951 3.58937L94.9373 17.7315C99.8877 12.7811 106.602 10 113.603 10V-10ZM80.7951 3.58937L67.9289 16.4556L82.0711 30.5977L94.9373 17.7315L80.7951 3.58937Z" fill="black" mask="url(#path-3-inside-2)"/>
</svg>
