<svg width="150" height="150" viewBox="0 0 150 150" fill="none" xmlns="http://www.w3.org/2000/svg">
<path fill-rule="evenodd" clip-rule="evenodd" d="M48.6626 0.00163271C36.2842 0.102951 23.8802 4.91992 14.3941 14.4084C-4.5717 33.3826 -4.84792 64.0347 13.8773 82.7616C31.8504 100.736 60.7814 101.163 79.8559 84.4002L87.8087 92.2148C84.8058 97.2278 85.4825 103.859 89.8378 108.096L127.787 146.048C130.64 148.899 134.216 150.177 137.529 149.98C140.842 149.78 143.831 148.255 146.049 146.035C148.266 143.815 149.788 140.841 149.981 137.527C150.174 134.214 148.89 130.636 146.036 127.784L108.087 89.8326C105.655 87.3371 102.321 85.934 98.8366 85.9379C96.5621 85.9383 94.3736 86.5882 92.4341 87.7025L84.4184 79.8248C101.143 60.7477 100.714 31.8403 82.7547 13.879C73.391 4.51444 61.041 -0.0996865 48.6626 0.00163271ZM48.7004 6.40463C59.4139 6.31331 70.0816 10.3195 78.1923 18.4291C94.3176 34.5558 94.1961 60.8016 77.9402 77.367C77.7291 77.5278 77.5386 77.7141 77.3731 77.9215C77.3646 77.9299 77.3562 77.9383 77.3479 77.9468C60.7836 94.1972 34.5629 94.3107 18.4397 78.1862C2.21843 61.9636 2.41056 35.5057 18.9565 18.9585C27.2294 10.6849 37.9869 6.49594 48.7004 6.40463Z" fill="#828282"/>
</svg>
